<?xml version="1.0" standalone="no"?>
<!DOCTYPE svg PUBLIC "-//W3C//DTD SVG 20010904//EN"
 "http://www.w3.org/TR/2001/REC-SVG-20010904/DTD/svg10.dtd">
<svg version="1.0" xmlns="http://www.w3.org/2000/svg"
 width="260.000000pt" height="260.000000pt" viewBox="0 0 260.000000 260.000000"
 preserveAspectRatio="xMidYMid meet">
<metadata>
Created by potrace 1.11, written by Peter Selinger 2001-2013
</metadata>
<g transform="translate(0.000000,260.000000) scale(0.100000,-0.100000)"
fill="#000000" stroke="none">
<path d="M2078 2218 c-144 -138 -141 -136 -181 -106 -80 60 -287 138 -402 153
-27 4 -61 9 -75 11 -36 6 -213 6 -241 0 -13 -3 -47 -7 -75 -10 -125 -14 -301
-83 -429 -169 -221 -149 -383 -414 -412 -675 -9 -77 -8 -225 0 -287 20 -132
87 -308 156 -409 l31 -45 -71 -68 c-39 -37 -92 -87 -117 -110 l-46 -42 20 -22
c10 -12 54 -59 96 -103 l77 -81 32 30 c18 17 68 64 111 105 101 96 104 97 138
71 86 -63 257 -130 400 -156 102 -19 371 -14 463 9 366 90 598 292 738 641 34
86 52 205 51 343 -1 182 -47 343 -142 503 -28 45 -50 85 -50 89 0 4 52 56 116
116 91 85 113 110 102 119 -7 6 -52 51 -100 101 l-86 90 -104 -98z m-638 -433
c35 -9 77 -23 93 -31 36 -19 46 -6 -153 -194 -20 -19 -104 -98 -185 -175 -81
-77 -159 -151 -174 -164 -14 -13 -63 -59 -107 -102 -62 -60 -84 -76 -92 -67
-23 29 -53 154 -53 227 -1 88 14 156 48 226 114 232 368 346 623 280z m346
-292 c29 -69 44 -137 44 -208 -1 -88 -13 -142 -51 -221 -107 -225 -360 -341
-614 -283 -41 10 -118 41 -133 54 -4 4 22 30 187 185 156 146 199 186 459 433
45 42 84 77 87 77 2 0 12 -17 21 -37z"/>
</g>
</svg>
