<svg width="26" height="26" viewBox="0 0 26 26" fill="none" xmlns="http://www.w3.org/2000/svg">
<path d="M22.7885 3.61377H1V25.4022H22.7885V3.61377Z" stroke="#FF6105" stroke-width="0.619565"/>
<path fill-rule="evenodd" clip-rule="evenodd" d="M13.9791 15.4649C13.7153 15.4659 13.6033 15.4666 13.4581 15.4673L13.8192 16.0905C13.8407 16.0848 13.8622 16.0791 13.8833 16.0734C13.864 16.0038 13.8478 15.9331 13.8249 15.8651C13.8027 15.7988 13.7734 15.7356 13.7406 15.6548C13.8242 15.6197 13.9135 15.5534 13.944 15.5743C14.0976 15.6776 14.2578 15.7852 14.3743 15.9254C14.6356 16.2398 14.8674 16.5785 15.1214 16.899C15.248 17.0582 15.3978 17.1989 15.531 17.3416C15.357 17.6999 15.2357 17.2712 15.0711 17.3414C15.1704 17.8863 15.772 18.0581 15.9567 18.5365C15.8615 18.2033 15.796 17.8544 15.4307 17.6209C15.5235 17.6204 15.6377 17.5849 15.7043 17.6263C15.8406 17.7108 15.9584 17.8298 16.0701 17.9479C16.2522 18.1411 16.251 18.4707 16.5496 18.582C16.7828 18.669 16.7568 18.9999 17.0549 19.0827C17.2048 19.1243 17.2809 19.435 17.4037 19.647C16.9407 19.681 16.9171 19.3105 16.7368 19.1035C16.5743 18.9168 16.3807 18.7566 16.133 18.6412C16.4488 19.0897 16.7199 19.5811 17.0938 19.9748C17.4492 20.3485 17.8525 20.6778 18.2016 21.0839C18.0414 20.769 17.8809 20.4536 17.7207 20.1388L17.7994 20.0935C18.2732 20.6783 18.7474 21.2636 19.221 21.8485C19.1915 21.8754 19.1614 21.9019 19.1317 21.9286C18.8793 21.6728 18.6266 21.4172 18.3745 21.1619C18.5026 21.4614 18.5132 21.8334 18.897 21.9645C19.2126 22.5651 19.8446 22.9556 20.0253 23.6657L19.5937 23.914C19.4835 23.8347 19.5735 23.6264 19.3555 23.5988C19.2522 23.5856 19.2872 23.2989 19.0524 23.3674C18.9888 23.3861 18.833 23.3196 18.8334 23.2939C18.8366 22.8684 18.4241 22.6917 18.2853 22.3578C18.2421 22.2536 18.2408 22.1323 18.2159 21.9949C18.1119 22.0311 17.9814 22.0762 17.8503 22.1214C17.8968 21.8501 17.4293 21.8077 17.5896 21.4914C17.4784 21.5114 17.3879 21.5278 17.2647 21.5499C17.2116 21.2681 17.2505 20.9528 16.9459 20.7716C16.922 20.8345 16.8989 20.895 16.8411 21.0458C16.6604 20.6101 16.5038 20.2333 16.342 19.8438C16.0925 19.7763 15.8605 19.7132 15.6789 19.664C15.5624 19.4575 15.7524 19.2342 15.434 19.1378C15.1852 19.0626 14.9625 18.8401 14.7751 18.6394C14.6547 18.5107 14.5998 18.3077 14.5526 18.1286C14.5193 18.0015 14.3492 17.9811 14.3877 17.7689C14.4278 17.547 14.1723 17.7163 14.0576 17.6796C13.9509 17.6451 13.8138 17.5818 13.7703 17.4924C13.5965 17.1334 13.2276 16.9134 13.1001 16.5278C13.0937 16.5079 13.1112 16.48 13.1177 16.4561C12.5264 16.3049 12.3763 15.6651 11.9384 15.3777C11.5728 15.1377 11.567 14.6209 11.1243 14.4924C10.3828 13.6728 9.72057 12.7788 8.85637 12.0737C8.60059 11.4814 8.00275 11.191 7.62991 10.689C7.28504 10.2254 6.86336 9.77726 6.41955 9.41711C5.6166 8.76506 5.05727 7.86767 4.18448 7.30075C4.07894 6.97324 3.80793 6.89106 3.51564 6.79244C3.35404 6.73784 3.23902 6.54424 3.12598 6.43524C3.18328 6.02679 3.38326 5.69403 3.30299 5.32074C3.54986 5.25265 3.79901 5.18357 4.09501 5.10156C4.74715 5.68801 5.49124 6.25216 6.09201 6.98196C6.37031 7.31972 6.77663 7.55099 7.05872 7.88594C7.40977 8.30265 7.82205 8.66596 8.14876 9.09221C8.49843 9.54765 8.92742 9.91952 9.31078 10.3355C9.54743 10.592 9.79821 10.8592 10.0087 11.1244C10.3651 11.5738 10.8269 11.9163 11.1595 12.385C11.3595 12.6671 11.6543 12.8803 11.8948 13.1359C12.0592 13.31 12.0626 13.6064 12.3373 13.705C12.571 13.7885 12.5278 14.1825 12.8495 14.1794C12.9965 14.5806 13.3384 14.8356 13.5929 15.1558C13.659 15.2392 13.7615 15.2933 13.9791 15.4649Z" fill="#FF6105"/>
<path fill-rule="evenodd" clip-rule="evenodd" d="M24.1667 1.23068C25.3892 0.343407 25.0918 0.390847 25.1459 0.501169C25.2491 0.453688 25.3533 0.405673 25.5079 0.334559C25.4817 0.484036 25.4652 0.578375 25.4484 0.673683C25.4755 0.67561 25.5135 0.678331 25.5517 0.681052C25.5482 0.703561 25.5538 0.738819 25.5396 0.751053C25.1882 1.05326 24.9847 1.48142 24.6323 1.78794C24.2789 2.09542 23.929 2.41929 23.6416 2.78627C23.4074 3.08501 23.1532 3.35901 22.8965 3.63483C22.8172 3.71978 22.6804 3.71714 22.6363 3.87259C22.6033 3.98896 22.4537 4.07152 22.3559 4.16923L22.0335 4.49115C21.9357 4.58876 21.8378 4.68594 21.7405 4.78398C21.6434 4.88137 21.5467 4.97941 21.4517 5.07886C21.4447 5.08606 21.4508 5.10569 21.451 5.15526C21.5546 5.07556 21.642 5.0082 21.7294 4.94062C21.7415 4.95359 21.7535 4.96646 21.7656 4.97922C21.6663 5.08361 21.5679 5.18897 21.4672 5.29174C21.361 5.40042 21.253 5.50715 21.1446 5.61366C21.1262 5.63181 21.1 5.65995 21.0813 5.65719C20.8268 5.61911 20.7229 5.75894 20.6538 5.97766C20.6278 6.05968 20.5238 6.11654 20.4554 6.18483C19.5369 7.10206 18.6168 8.01778 17.7021 8.93858C17.6025 9.03887 17.4374 9.10467 17.4594 9.29332C17.4602 9.30184 17.4404 9.32181 17.4316 9.32114C17.2514 9.30595 17.3032 9.54536 17.186 9.55928C17.0346 9.57738 16.9892 9.64587 16.964 9.78005C16.9565 9.82108 16.8628 9.85469 16.8028 9.87398C16.7187 9.90084 16.6827 9.85782 16.6995 9.77189C16.6772 9.76987 16.6502 9.75922 16.6341 9.76799C16.6122 9.78009 16.5816 9.8107 16.5852 9.82698C16.596 9.87627 16.6373 9.92243 16.6375 9.96962C16.6378 10.0324 16.6295 10.1137 16.5907 10.1535C16.5238 10.222 16.3836 10.2487 16.3588 10.3219C16.3191 10.4396 16.2647 10.4841 16.1546 10.5301C16.0796 10.5615 16.0533 10.6927 15.9867 10.7614C15.7184 11.0384 15.4428 11.3082 15.1763 11.5743C15.1055 11.5572 15.0456 11.5428 14.986 11.5286C14.9807 11.5963 14.9757 11.6641 14.966 11.7908C14.8809 11.9337 14.5736 12.0219 14.6539 12.3401C14.58 12.3363 14.5114 12.3327 14.4505 12.3296C14.2839 12.6263 14.069 12.8597 13.7678 13.0063C13.6439 13.345 13.3101 13.4911 13.1129 13.7617C13.0636 13.7024 13.0142 13.6286 13.0045 13.6335C12.8825 13.6938 12.9809 13.7629 13.0115 13.8445L12.701 14.1546C12.7283 14.2133 12.7499 14.2598 12.773 14.309C12.7525 14.3158 12.7303 14.3315 12.7122 14.3275C12.5709 14.2977 12.4406 14.3577 12.4037 14.4709C12.3175 14.7364 12.0888 14.8697 11.9207 15.0577C11.7759 15.2196 11.6147 15.3668 11.5006 15.5661C11.6041 15.4818 11.7077 15.3976 11.8111 15.3131C11.6152 15.5466 11.5089 15.8966 11.1521 15.8614C11.0558 15.9902 10.9886 16.1031 10.8997 16.1952C10.6234 16.4808 10.3388 16.7587 10.0634 17.0337C10.0963 17.1012 10.1186 17.1473 10.1523 17.2159C10.033 17.1915 9.9358 17.1715 9.83861 17.1516C9.89972 17.2523 9.93752 17.3824 9.7956 17.4082C9.64548 17.4355 9.63685 17.5282 9.57202 17.6256C9.45341 17.8035 9.27346 17.9406 9.15286 18.1374C9.23714 18.0762 9.32142 18.0149 9.41022 17.9507C9.41724 17.982 9.43311 18.0137 9.42504 18.022C9.21214 18.2387 9.00618 18.4636 8.77854 18.6643C8.61061 18.8123 8.38677 18.8935 8.24888 19.0823C8.22654 19.113 8.2082 19.1467 8.21489 19.2066C8.30162 19.1366 8.38824 19.0666 8.47497 18.9964C8.25525 19.2667 8.08249 19.5737 7.74311 19.7283C7.59292 19.7967 7.49014 19.9673 7.38961 20.1304C7.4568 20.0899 7.5241 20.0493 7.59356 20.0074C7.59948 20.0324 7.61588 20.0641 7.60782 20.0723C7.51245 20.1717 7.4134 20.2673 7.31533 20.364C7.13842 20.2919 7.24511 20.5548 7.08366 20.5525C6.97865 20.5512 6.99588 20.7838 6.79411 20.7914C6.68438 20.7959 6.58328 20.9834 6.51236 21.1305C6.59955 21.0671 6.68695 21.0038 6.77962 20.9363C6.78137 20.9722 6.79281 21.0043 6.78217 21.0153C6.63788 21.1637 6.48384 21.3033 6.34539 21.4571C6.07516 21.757 5.78449 22.0449 5.55937 22.3765C5.43796 22.5553 5.29659 22.7084 5.16618 22.8749C5.05413 23.0177 4.97509 23.1871 5.09522 23.4065C5.04436 23.4573 4.95159 23.5903 4.91787 23.5766C4.77057 23.5165 4.62737 23.6379 4.50845 23.5784C4.39613 23.5221 4.32412 23.5421 4.21556 23.5722C3.99649 23.6329 3.81498 23.5117 3.73813 23.2937C3.65848 23.291 3.57797 23.2886 3.49918 23.286C3.47957 23.2629 3.44788 23.2433 3.44662 23.2219C3.431 22.9874 3.49528 22.7952 3.64847 22.5985C3.89941 22.2764 4.09127 21.9081 4.39902 21.6285C4.46389 21.3569 4.71316 21.2332 4.87153 21.0366C4.99552 20.8829 5.10208 20.7147 5.23126 20.5658C5.35744 20.4201 5.55389 20.3135 5.62712 20.1484C5.73268 19.9111 5.9092 19.7515 6.08844 19.598C6.31889 19.4008 6.42915 19.117 6.64403 18.9126C6.86386 18.703 7.12305 18.5145 7.27982 18.2632C7.58231 17.7782 8.07008 17.4732 8.40174 17.0296C8.81288 16.4795 9.3664 16.0624 9.77944 15.5275C10.3355 14.807 11.0347 14.2342 11.6427 13.57C11.7172 13.4887 11.7994 13.4144 11.8765 13.3352C11.9415 13.2687 12.0321 13.2149 12.0024 13.0973C12.1304 13.1556 12.1035 12.9777 12.2094 12.9617C12.2742 12.952 12.3102 12.8023 12.3724 12.7261C12.4421 12.6411 12.5268 12.5685 12.605 12.4904L12.8101 12.2855L13.0447 12.0513L13.2792 11.8171L13.4844 11.6123C13.5625 11.5342 13.6355 11.4499 13.7202 11.3796C13.8204 11.2966 13.8799 11.1751 14.0403 11.1456C14.1175 11.1314 14.1526 10.9543 14.2297 10.8728C14.4672 10.6224 14.7202 10.3867 14.9578 10.1364C15.0464 10.0434 15.1937 9.9865 15.1728 9.81078C15.1589 9.69554 15.3743 9.83488 15.3545 9.66153C15.3481 9.60687 15.4649 9.48013 15.4999 9.48909C15.6978 9.53914 15.5931 9.26776 15.7257 9.28784C15.9136 9.31609 15.836 9.13963 15.9044 9.07953C15.943 9.04551 15.9903 9.021 16.0335 8.99195C16.1093 8.94135 16.2531 8.88442 16.2489 8.84087C16.2314 8.66323 16.4209 8.66519 16.4714 8.53994C16.5235 8.41005 16.6673 8.31638 16.774 8.20986C18.6887 6.29723 20.6069 4.38762 22.5158 2.46893C22.7703 2.21304 23.0986 2.0142 23.2273 1.6473C23.4706 1.62973 23.4741 1.37597 23.6121 1.24984C24.0396 0.859113 24.4386 0.437677 24.877 0C24.9082 0.0606713 24.9655 0.135658 24.9521 0.151883C24.7642 0.377513 24.621 0.634766 24.4 0.83959C23.9548 1.25257 23.5353 1.69311 23.1068 2.12382C23.0914 2.13939 23.0943 2.17313 23.0885 2.19854C23.118 2.18883 23.1503 2.18421 23.1762 2.16878C23.2408 2.13 23.3536 2.14796 23.3398 2.01268C23.3362 1.97764 23.4115 1.93524 23.4506 1.89626C24.0165 1.33112 24.5824 0.766096 24.1667 1.23068C23.1601 2.26485 23.1507 2.25328 23.1413 2.24183C23.026 2.30791 22.9042 2.36513 22.7977 2.44352C22.7413 2.48513 22.4419 2.80574 22.3911 2.84392C22.3477 2.87642 22.2748 2.92066 22.2775 2.95537C22.2906 3.12751 22.1508 3.19049 22.0598 3.28176C20.674 4.67018 19.2861 6.05656 17.8947 7.43925C17.813 7.52054 17.7637 7.65679 17.608 7.64912C17.5784 7.64762 17.5197 7.69105 17.5204 7.71218C17.5284 7.89776 17.3597 7.95417 17.2696 8.0656C17.0849 8.29372 16.8161 8.4473 16.7014 8.74258C16.669 8.82598 16.5438 8.87748 16.455 8.93352C16.2839 9.04143 16.1228 9.15713 16.0513 9.35742C16.0263 9.42738 15.8831 9.40165 15.9239 9.52055C15.7537 9.50055 15.6432 9.64165 15.6125 9.74111C15.5614 9.9072 15.3736 9.87669 15.3242 10.0103C15.3153 10.0341 15.2883 10.0563 15.2899 10.0781C15.2973 10.1817 15.25 10.2036 15.1526 10.2322C15.0581 10.2598 14.953 10.346 14.9122 10.4343C14.8594 10.5489 14.7818 10.674 14.7042 10.7251C14.5836 10.8046 14.5266 10.9169 14.4387 11.0116C13.7499 11.7522 12.9722 12.4044 12.3446 13.208C11.8761 13.8078 11.2445 14.2594 10.7819 14.8801C10.361 15.4444 9.76475 15.8584 9.34216 16.4391C9.00904 16.897 8.51129 17.2165 8.19543 17.7058C8.04894 17.9327 7.79935 18.0903 7.62107 18.3001C7.45761 18.4927 7.24226 18.6251 7.12024 18.8772C7.00647 19.1121 6.74946 19.2768 6.55764 19.4744C6.52808 19.5051 6.50923 19.5461 6.48551 19.5824C6.56558 19.5829 6.60301 19.5477 6.63795 19.5102C6.97014 19.1545 7.32877 18.8288 7.6212 18.4293C7.97249 17.9496 8.48041 17.6066 8.8287 17.1058C9.15187 16.6413 9.69074 16.3521 9.9644 15.8327C10.0029 15.7597 10.1811 15.8427 10.1278 15.6793C10.2886 15.7129 10.2447 15.5504 10.3048 15.4878C10.7758 14.9974 11.3179 14.573 11.6943 13.9941C11.7448 13.9165 11.8295 13.8095 11.9012 13.8079C12.0636 13.804 11.9804 13.6398 12.08 13.5951C12.1626 13.558 12.2197 13.4649 12.2881 13.3966C12.6792 13.0061 13.0735 12.6188 13.459 12.2231C13.5581 12.1212 13.7163 12.0554 13.7111 11.8701C13.7106 11.8494 13.798 11.8311 13.8398 11.8046C13.8952 11.7693 13.9944 11.7208 13.99 11.6889C13.9727 11.5628 14.0677 11.5932 14.1216 11.5541C14.1752 11.515 14.1723 11.4046 14.2229 11.3541C14.3045 11.2726 14.3588 11.1364 14.5143 11.1615C14.5034 11.0374 14.5959 10.974 14.6698 10.9016C14.7447 10.828 14.8024 10.7205 14.9372 10.7494C14.906 10.6131 15.0168 10.5559 15.0905 10.4818C15.5779 9.99217 16.0789 9.51603 16.5527 9.01372C17.0189 8.51924 17.5856 8.11661 17.9391 7.51775C18.0545 7.51579 18.1002 7.40916 18.1714 7.34874C18.2634 7.27094 18.3153 7.14774 18.4015 7.06098C18.5014 6.96057 18.5764 6.81666 18.7492 6.81651C18.7393 6.61551 18.9191 6.54589 19.0279 6.43636C20.3137 5.14348 21.6058 3.85666 22.8956 2.56747C22.9898 2.4734 23.0784 2.3735 24.1667 1.23068Z" fill="#FF6105"/>
</svg>
