
<svg  viewBox="0 0 717 448" version="1.1" xmlns="http://www.w3.org/2000/svg" xmlns:xlink="http://www.w3.org/1999/xlink">
  
    <title>map-plot</title>
  
    <defs>
        <linearGradient x1="50%" y1="-1.14703262%" x2="50%" y2="100%" id="linearGradient-1">
            <stop stop-color="#042965" offset="0%"></stop>
            <stop stop-color="#082B67" offset="100%"></stop>
        </linearGradient>
    </defs>
    <g id="Page-1" stroke="none" stroke-width="1" fill="none" fill-rule="evenodd">
        <g id="Hp-hero-4-text" transform="translate(-135.000000, -70.000000)">
            <g id="map-plot" transform="translate(125.000000, 70.000000)">
                <g id="mainland" transform="translate(16.000000, 0.000000)" fill="url(#linearGradient-1)" fill-rule="nonzero" opacity="0.712867374">
                    <path d="M615.874891,203.965103 L616.032094,203.447957 L619.387966,203.399483 L621.778933,204.161284 L623.414865,204.415215 L624.169907,202.764655 L623.037344,201.114102 L623.037344,199.717472 L621.149731,198.066912 L619.513807,193.750073 L620.52053,189.560193 L620.394689,187.90964 L619.387966,186.893907 C619.387966,186.893907 620.52053,185.624251 620.52053,185.116389 C620.52053,184.608519 620.898051,183.465828 620.898051,183.465828 L622.408142,182.450103 L623.918227,181.180439 L624.295748,181.942241 L623.163184,183.211897 L622.156462,186.132114 L622.408142,187.020873 L623.792386,187.274804 L624.169907,191.59165 L622.533983,192.353444 L622.785663,195.146695 L623.163184,195.019729 L624.044067,193.496142 L625.302478,194.892764 L624.044067,195.908497 L623.792386,198.574782 L625.805839,201.241068 L628.826015,201.621964 L630.084427,200.987136 L632.603841,204.272354 L633.661216,204.693557 L634.204207,204.936351 L634.31623,206.465522 L633.719279,208.898344 L632.483917,212.183671 L632.136825,216.463329 L633.281375,220.108159 L634.966099,218.603249 L636.389039,214.693468 L636.0296,212.030662 L636.355053,208.42902 L638.628017,205.460958 L639.227725,202.933709 L638.840606,202.496869 L640.403358,199.336576 L640.580022,195.51662 L640.404129,194.95583 L638.641593,189.179296 L637.886543,189.560193 L635.118048,187.655709 L633.733804,183.973691 L632.223712,181.180439 L630.461948,180.418646 L628.826015,177.625395 L629.214403,175.974834 L629.611696,176.3707 L630.461948,178.133257 L632.978762,180.418646 L636.75398,182.196172 L639.899997,182.704034 L640.025837,183.846725 L639.396635,184.608519 L639.648316,186.766942 L640.277518,186.766942 L641.91345,184.862458 L642.542652,181.053474 L644.681945,177.879326 L647.072919,172.800686 L647.953802,168.483848 L647.450441,167.595081 L647.3246,160.231052 L646.066189,157.564774 L645.185307,158.199602 L643.046013,158.453534 L642.668492,158.072637 L643.549382,157.310835 L645.185307,155.787248 L645.234394,154.928169 L645.65511,154.86083 L646.569558,155.279386 L649.715574,154.390619 L654.245842,152.867031 L656.259288,152.10523 L661.796278,147.915357 L664.816454,145.629968 L667.459109,142.836717 L664.187253,141.567061 L663.18053,142.709752 L660.915396,144.868175 L654.749204,147.915357 L652.987431,147.788391 L651.729028,147.280529 L650.848138,147.788391 L649.086373,149.819849 L647.953802,150.835574 L646.947079,151.089505 L646.695398,150.07378 L648.205483,148.677151 L647.585427,147.358942 L648.375016,147.539432 L652.232389,144.868175 L655.000884,142.328855 L656.510968,140.678294 L657.140178,141.186157 L659.279464,140.043466 L663.30637,139.154707 L668.79014,136.41271 L669.472586,136.234474 L671.737697,135.472689 L673.625309,133.949101 L674.506192,132.552472 L675.512915,132.679438 L677.778874,131.47277 L678.183017,131.179773 L679.791502,130.394049 L679.413981,128.61653 L680.043182,127.473832 L682.308316,126.331142 L682.937518,128.743496 L682.559997,130.140118 L680.672384,131.282816 L680.672384,132.04461 L682.182476,130.901919 L685.202652,127.346867 L688.222828,125.823279 L691.494685,124.680581 L691.243004,122.776097 L690.487962,120.490708 L688.97787,118.586216 L687.593626,117.951388 L685.957694,118.078354 L685.580173,118.459251 L686.335215,119.474976 L687.467786,118.840148 L689.10371,120.109811 L689.73292,122.268227 L688.348668,123.664856 L686.586904,124.42665 L683.818408,124.045753 L680.798225,119.34801 L679.03646,117.31656 L677.652208,117.31656 L676.771326,117.951388 L675.261234,115.919931 L675.512915,114.77724 L677.400528,110.714325 L675.151468,107.24854 L674.710622,106.862051 L675.387074,106.016582 L676.23573,103.431859 L676.526137,102.552847 L677.400528,97.636829 L677.526368,94.2087498 L678.658939,93.193025 L677.903889,90.6537051 L680.294863,87.860454 L681.553274,89.0031444 L682.559997,88.6222476 L686.712744,86.2098933 L686.964425,83.9245046 L689.229559,83.5436078 L690.487962,81.5121502 L690.362122,80.2424942 L690.110441,77.8301399 L690.739643,76.8144151 L690.487962,75.925648 L689.481239,74.7829576 L691.117164,73.7672327 L692.501415,76.3065527 L693.633978,76.0526136 L693.885659,77.0683463 L693.885659,78.3380023 L695.395751,78.4649679 L695.773272,76.3065527 L696.150793,75.7986824 L694.89239,74.655992 L695.647432,73.5132976 L697.535044,72.370604 L698.290087,71.2279097 L699.67433,71.1009441 C699.67433,71.1009441 699.926019,72.7515016 700.42938,72.7515016 C700.932742,72.7515016 701.436103,72.7515016 701.436103,72.7515016 L705.211321,68.4346586 L707.853976,66.022305 L709.364068,65.514441 L711,61.8324283 L711,60.3088364 L709.238227,57.3886189 L707.728136,55.7380613 L705.58885,55.8650277 L705.966371,56.7537893 L705.84053,57.1346869 L705.211321,57.1346869 L702.946195,55.3571637 L702.820354,51.5481846 L702.191145,50.0245927 L697.535044,50.0245927 L690.487962,26.5358877 L688.97787,25.7740925 L684.32177,23.869603 L683.189199,23.7426366 L681.804955,25.1392622 L678.658939,27.4246501 L678.658939,28.1864453 L678.029729,28.8212757 L675.890443,28.3134117 L674.883713,26.5358877 L674.883713,25.6471262 L673.87699,25.5201606 L672.87026,25.5201606 L671.234335,28.8212757 L668.969201,35.8044043 L667.58495,39.6133834 L667.710798,43.4223625 L667.836638,44.565056 L667.207429,46.7234776 L666.578227,47.4852735 L666.578227,52.1830142 L668.088319,54.0875038 L666.955748,57.2616533 L664.942295,60.943666 L664.313093,65.260509 L664.313093,67.291965 L663.13472,66.9700358 L662.028934,67.062841 L661.362026,67.4229046 L660.663715,67.4189306 L660.160354,68.6885905 L659.656993,68.3076929 L658.901943,67.545897 L657.76938,69.0694881 L657.731649,73.0215961 L657.015124,73.2588127 L636.583404,78.5581619 L636.099207,78.8697562 L630.210267,80.4964254 L626.686722,81.6391158 L624.169907,81.5121502 L619.891328,82.5278829 L617.492717,83.5064275 L615.612741,84.9402372 L613.976816,86.8447213 L611.837523,89.764938 L609.572389,93.3199906 L608.439818,95.6053793 L607.936456,96.2402073 L603.406196,100.557046 L603.532037,102.588503 L604.161238,103.47727 L605.545482,104.112098 L606.929734,104.112098 L606.929734,105.254789 L606.048851,106.905349 L606.300532,108.04804 L607.433095,109.698601 L607.307255,111.476119 L605.797163,112.364886 L604.161238,112.364886 L602.902827,113.888473 L601.518583,116.427793 L599.882651,117.824423 L595.855752,118.20532 L593.842299,119.094079 L592.206367,120.109811 L590.947964,119.982846 L589.437872,118.967113 L584.530091,119.094079 L582.013276,119.474976 L578.867252,120.490708 L575.469555,121.633399 L573.204421,123.030028 L574.714513,127.854737 L576.098756,127.981702 L577.105487,130.394049 L577.231327,131.15585 L576.350437,131.917644 L574.714513,134.076067 L574.336992,135.345723 L572.8269,136.742353 L571.442656,137.631112 L570.687606,138.900776 L569.680883,139.789535 L568.569213,140.673393 L567.786327,141.081158 L563.514691,145.503003 L562.507961,145.8839 L559.236789,148.247042 L558.442483,148.159989 L553.699113,151.343436 L550.678937,153.120963 L548.036282,156.041179 L544.890266,159.088362 L542.373451,159.72319 L540.108318,160.104086 L535.82973,162.135544 L534.193806,162.26251 L531.551151,159.850155 L527.524244,160.358025 L525.510799,159.215327 L523.657312,158.154403 L522.760682,157.899255 L522.868144,157.437801 L522.993984,156.29511 L524.629909,153.374894 L526.187197,152.01001 L526.01416,148.042323 L527.257299,146.788068 L528.106266,146.518728 L528.279294,143.725476 L529.474777,141.344875 L530.29274,141.820992 L530.41858,142.328855 L531.04779,142.45582 L532.557874,141.694027 L532.306193,134.203033 L529.789378,127.727763 L528.027606,120.617674 L526.140001,118.078354 L524.126547,116.681724 L522.868144,117.570492 L519.84796,118.967113 L518.337876,122.903063 L516.198582,125.823279 L515.3177,126.331142 L514.185129,125.823279 C514.185129,125.823279 512.171684,124.680581 512.297524,124.172719 C512.423364,123.664856 512.675045,120.236777 512.675045,120.236777 L515.3177,119.221044 L515.946902,116.554759 L516.450263,114.523309 L518.337876,113.253645 L518.086195,105.381754 L516.827784,103.604236 L515.821061,102.9694 L515.19186,101.318847 L515.821061,100.684019 L517.079465,100.93795 L517.205305,99.6682865 L515.3177,97.8907602 L514.31097,95.8593105 L512.297524,95.8593105 L508.773979,94.7166123 L504.4954,92.0503267 L502.356106,92.0503267 L501.852745,92.558197 L501.097695,92.1772923 L498.706728,90.3997739 L496.441594,91.7963955 L494.17646,93.5739218 L494.428141,96.367173 L495.183183,96.6211042 L496.819115,97.002001 L497.196636,97.636829 L495.183183,98.2716649 L493.169738,98.5255961 L492.037167,99.9222177 L491.785486,101.572778 L492.037167,102.842434 L492.288847,107.159281 L489.520352,108.809841 L489.016991,108.682868 L489.016991,105.381754 L490.023714,103.47727 L490.527083,101.572778 L489.897873,100.93795 L488.387789,101.572778 L487.632739,104.873892 L485.493453,105.762651 L484.109202,107.286246 L483.983362,108.04804 L484.486723,108.682868 L483.983362,110.714325 L482.221589,111.095222 L482.221589,111.983989 L482.850798,113.888473 L481.969908,118.713182 L480.711505,121.88733 L481.214866,125.569348 L481.592387,126.458107 L480.963186,128.362599 L480.711505,128.997427 L480.459824,131.15585 L483.22832,135.853586 L485.493453,140.932225 L486.626017,144.741209 L485.996815,148.42322 L485.241773,153.120963 L483.35416,157.18387 L483.102479,159.342293 L480.56569,161.765328 L479.768099,162.389177 L477.565489,163.659139 L475.929556,165.182726 L475.048674,165.436657 L473.916103,164.674864 L471.52551,163.976255 L470.856375,164.128855 L470.644246,163.405208 L470.015045,161.37375 L469.008322,158.453534 L467.749911,157.056904 L466.617348,155.025454 L466.435531,150.714499 L466.202898,149.866996 L466.491507,147.53446 L465.233096,143.979408 L464.729735,139.154707 L463.848852,137.250215 L464.603894,134.837861 L465.233096,132.552472 L466.365667,130.521022 L465.862298,127.854737 L465.358936,125.061486 L465.736457,123.664856 L467.246549,121.760364 L467.37239,119.601941 L466.743188,118.586216 L467.246549,116.554759 L467.62407,114.015439 L469.763364,109.571635 L472.028498,104.239064 L472.154338,102.461538 L471.902658,101.699744 L471.273448,102.080641 L468.001591,107.032315 L465.862298,110.206463 L464.352214,111.603092 L463.723012,113.380611 L462.590441,114.015439 L461.709559,115.539034 L460.576988,115.285103 L460.451148,113.888473 L461.457878,111.983989 L463.093803,108.301971 L464.478054,107.032315 L465.33535,105.232554 L465.777006,104.531793 L468.253272,99.0334585 L469.008322,95.8593105 L470.518406,92.4312235 L471.147608,92.3042579 L472.028498,93.5739218 L472.531859,93.5739218 L476.055397,91.6694299 L477.187968,92.9390938 L477.565489,93.0660594 L478.572211,92.1772923 L479.453094,89.764938 L481.340707,89.13011 L486.751857,88.6222476 L488.261949,86.5907901 L492.288847,86.4638245 L496.819115,87.4795572 L498.203359,87.4795572 L500.720174,86.3368589 L502.481946,86.4638245 L504.117879,85.9559621 L507.012214,86.3368589 L507.641416,86.5907901 L508.648139,86.3368589 L507.641416,85.5750653 L506.634693,85.0672028 L504.117879,82.6548485 L504.117879,77.1953119 L502.985308,76.8144151 L502.104425,77.7031743 L497.322477,78.9728303 L495.812385,79.353735 L493.547259,78.7188991 L493.169738,78.4649679 L493.169738,74.0211639 L492.037167,73.8941983 L490.023714,74.9099232 L486.500176,76.4335183 L481.340707,76.6874495 L478.698052,77.5762087 L475.552035,80.3694598 L474.293624,81.1312534 L473.412742,81.1312534 L472.406019,81.7660893 L471.147608,81.3851846 L469.889204,80.3694598 L468.756633,81.1312534 L465.736457,81.258219 L463.597164,79.0998038 L462.464601,76.6874495 L461.332038,75.7986824 L458.815223,75.0368888 L457.053451,75.0368888 L456.046728,74.0211639 L453.278233,76.3065527 L452.523183,77.1953119 L451.893981,76.8144151 L452.145662,74.7829576 L454.033275,72.2436376 L454.410796,70.3391481 L456.172568,69.7043185 L457.305131,67.291965 L460.199467,66.530169 L460.451148,65.768373 L459.570265,64.8796114 L455.920887,65.260509 L452.523183,67.1649986 L450.761418,68.9425225 L449.754687,70.3391481 L448.370444,70.9739777 L446.860352,73.2593656 L446.734511,74.2750952 L443.336814,75.925648 L441.449201,77.4492431 L436.793101,78.2110367 L436.289732,78.7188991 L436.289732,79.4807006 L433.521237,81.258219 L431.381943,81.8930549 L430.824372,82.3488933 L430.0323,82.6801144 L429.620178,83.6705734 L428.739296,83.5436078 L428.235927,82.6548485 L426.096641,82.0200205 L425.215751,82.1469861 L423.831507,82.9087797 L423.076457,82.4009173 L423.579826,80.8773222 L425.08991,78.4649679 L425.970793,77.5762087 L424.460709,76.4335183 L422.824776,77.0683463 L420.559642,78.5919335 L414.770971,81.1312534 L412.505837,81.6391158 L410.240711,81.258219 L409.476507,80.5684532 L409.137884,80.1343857 L412.128316,77.8301399 L413.135047,77.7031743 L416.658584,73.7672327 L418.042836,73.1323992 L419.8046,70.0852161 L421.692213,67.291965 L424.083188,65.260509 L427.799969,63.684319 L434.997124,60.4947633 L438.063126,59.0519099 L438.539601,57.2616533 L435.08346,57.5527686 L434.527967,58.4043468 L434.024598,58.4043468 L432.640354,55.9919933 L425.719112,56.2459253 L424.96407,56.8807549 L424.209028,56.8807549 L423.831507,55.8650277 L423.202297,54.4684021 L421.188852,54.8492997 L418.672037,57.3886189 L417.413626,58.0234492 L415.022652,58.0234492 L413.009206,57.2616533 L413.009206,55.6110957 L412.002476,55.4841293 L411.624955,55.8650277 L409.611502,54.8492997 L409.233981,52.5639118 L408.101417,52.9448102 L407.723896,53.7066062 L405.836283,53.3257078 L401.683537,51.4212182 L398.663361,49.3897631 L396.398227,49.3897631 L395.391504,48.6279671 L393.629731,49.1358311 L392.748849,50.0245927 L392.497168,51.0403206 L388.72195,51.0403206 L388.72195,49.3897631 L383.814161,49.1358311 L383.562481,47.9931375 L379.787255,47.9931375 L378.528851,46.7234776 L377.396281,41.8987705 L376.767079,37.5819274 L375.256995,36.9470978 L373.495222,36.5661995 L372.991861,36.6931658 L372.74018,43.1684305 L349.284322,43.1407291 L348.430544,43.1035457 L326.304954,42.6605665 L311.833276,42.1527025 L291.195397,41.1369745 L271.776518,39.657409 L270.77716,39.2792979 L246.899472,37.0740634 L224.1223,34.2808123 L201.345136,31.1066628 L176.17699,26.9167861 L161.831152,24.2505006 L136.358213,18.8056224 L135.483784,18.6795828 L125.367251,16.6940382 L124.80638,16.3784557 L113.004959,13.7123249 L95.1355764,9.26851621 L79.5313273,4.82470675 L72.8617736,3.30111558 L65.3113305,1.14269381 L61.9136319,0 L61.0327464,0.634829901 L60.781065,1.26965972 L62.6686755,5.07863874 L63.549561,7.11009467 L62.1653134,9.9033458 L62.1653134,11.6808697 L62.6686755,12.8235633 L62.0394723,14.2201889 L62.4169948,16.759508 L63.1720385,17.775236 L63.0461981,18.7909639 L61.9136319,18.9179296 L61.410269,17.3943384 L60.5293843,15.4898488 L59.1451358,14.3471545 L59.3968173,12.6965969 L61.1585875,12.3156993 L60.9069061,10.9190738 L60.6552246,10.0303114 L59.0192955,11.0460394 L58.0125696,11.934801 L58.0125696,13.8392913 L56.2508002,13.9662569 L53.6081429,13.2044609 L51.3430097,12.0617673 L48.9520347,11.5539034 L45.428495,9.9033458 L42.9116811,8.37975385 L40.7723891,6.3482987 L38.8847785,4.06291077 L37.2488494,3.68201318 L35.4870792,11.0460394 L36.8713268,13.5853593 L36.8713268,19.8066919 L36.3679639,22.0920791 L37.5005309,27.6785821 L39.6398229,29.8370036 L36.2421236,30.3448668 L36.1162824,33.2650843 L38.1297341,34.1538467 L36.8713268,37.3279954 L34.7320348,37.5819274 L34.4803533,39.8673153 L36.2421236,42.1527025 L34.6061944,44.1841584 L32.8444242,49.2627967 L30.3276104,57.1346869 L27.8107957,62.2133259 L23.9097342,73.2593656 L18.8761058,83.9245046 L12.5840708,93.827853 L11.073982,96.1132417 L10.4447787,102.842434 L9.43805289,107.540177 L11.5461799,110.310574 L11.1714215,111.066791 L9.94141581,114.77724 L9.81557469,120.617674 L5.78867207,129.886186 L3.39769935,131.917644 L3.14601789,132.806403 L1.76176946,133.441239 L0.629203266,136.742353 L0,139.281673 L2.13929204,142.582786 L3.39769935,145.8839 L4.27858408,148.677151 L4.02690262,153.755791 L2.64265496,156.168145 L2.13929204,160.738922 L1.38424765,163.659139 L2.76849531,166.706321 L4.90778735,170.261366 L6.66955758,174.07035 L7.67628265,177.244498 L7.42460197,179.783818 L7.17292051,180.164715 L7.17292051,181.815267 L11.5773449,186.766942 L11.1998231,188.671434 L10.6964602,190.44896 L10.1930973,191.972547 L10.3189376,198.447816 L11.9548667,201.368033 L13.4649555,203.399483 L15.6042475,203.780387 L16.3592919,205.938803 L15.4784072,208.732054 L13.8424773,210.001718 L12.9615926,210.001718 L12.3323893,213.0489 L12.7099111,215.334289 L15.2267257,218.762368 L16.4851323,222.952249 L17.6176985,226.634259 L18.6244243,229.046613 L21.2670793,233.617391 L22.3996455,235.64884 L22.777168,237.934229 L24.0355746,238.696023 L24.0355746,240.600515 L23.4063713,242.12411 L22.0221237,247.710612 L21.6446011,249.234199 L23.5322124,251.392622 L26.8040707,251.773519 L30.3276104,253.170149 L33.3477871,254.820701 L35.6129203,254.820701 L37.8780527,257.233056 L39.8915036,261.042039 L40.7723891,262.819558 L43.7925659,264.470119 L47.567787,265.104947 L48.7003532,266.755507 L49.2037161,269.294827 L48.0711499,269.80269 L48.3228314,270.564483 L50.8396468,271.199311 L52.9789388,271.326285 L55.244072,275.008295 L58.2642511,278.309409 L58.8934544,280.086935 L60.9069061,283.388048 L61.1585875,285.927368 L61.1585875,293.291397 L61.5361093,294.688019 L69.3382362,295.830717 L84.6907969,297.989132 L95.5167871,298.754648 L96.2996268,299.341191 L94.254694,301.036314 L94.0030133,302.179013 L94.3805343,302.940806 L109.103893,311.32056 L118.54195,317.287959 L129.993452,324.017159 L143.080887,331.88905 L152.644784,333.793542 L172.205025,335.917942 L173.45422,336.548129 L185.489207,338.110381 L186.495929,330.23849 L199.457523,332.269947 L209.153691,333.54053 L209.902287,333.539603 L211.412364,333.920484 L213.425832,336.205857 L214.558403,339.633968 L218.207789,341.411494 L219.214512,343.950814 L224.75151,350.172152 L225.758233,351.441808 L229.659291,353.092369 L230.540181,354.742922 L231.798585,355.504723 L232.176106,357.663138 L234.69292,362.741778 L234.69292,369.090082 L236.454693,372.772092 L242.243364,378.866457 L246.270271,380.517018 L247.654514,382.040605 L247.654514,382.548475 L250.67469,384.325994 L252.184782,384.833856 L253.569026,385.722623 L255.582479,386.484417 L257.470092,384.579925 L260.867789,379.755224 L261.622831,376.835 L263.384604,374.295687 L266.153099,373.152989 L269.676637,371.756368 L272.067611,373.533886 L277.856282,374.041748 L283.141592,374.930515 L285.155045,376.581068 L285.155045,377.469835 L287.168499,379.88219 L291.824607,384.072062 L291.950447,385.214761 L293.334691,386.738348 L293.963893,390.039462 L298.116639,399.688879 L297.990799,401.212466 L301.262656,403.243924 L304.031151,408.449529 L306.673806,411.877608 L309.190621,412.893341 L310.449024,414.670859 L309.442301,418.098946 L309.945663,418.86074 L310.952393,419.368602 L310.700713,422.034888 L310.197343,422.54275 L310.700713,424.320277 L313.217519,425.843872 L314.22425,430.922504 L315.860174,433.969694 L321.774694,436.635979 L325.801593,437.524739 L329.073449,439.937093 L331.590264,440.444955 L332.596994,440.064058 L336.875574,440.952818 L341.280001,444 L343.670976,442.476413 L344.426018,441.333714 L343.041774,439.175291 L342.286724,434.350591 L340.90248,428.891054 L340.273279,426.986562 L340.90248,423.431517 L341.783363,420.384335 L342.790085,416.829282 L343.922656,412.512444 L342.160884,410.988849 L342.915934,409.465262 L346.06195,409.211323 L349.082126,404.894484 L351.724781,404.386622 L356.255049,401.593371 L357.639292,400.450672 L362.547081,397.784387 L366.951501,395.879895 L371.104248,393.340583 L373.243542,391.690022 L377.647961,387.500142 L378.654692,386.865314 L380.290616,385.722623 L382.304069,384.199028 L383.059112,382.675441 L390.735396,379.120388 L395.145085,377.875409 L395.644492,377.774974 L399.29257,376.581068 L405.584603,376.327137 L413.638408,379.120388 L418.672037,380.009155 L421.566373,378.866457 L424.083188,379.755224 L426.600002,380.517018 L427.229204,378.866457 L424.712389,377.977698 L422.698936,378.358595 L420.559642,377.088939 C420.559642,377.088939 420.685491,376.073206 421.188852,375.94624 C421.692213,375.819275 423.579826,375.184447 423.579826,375.184447 L424.96407,376.327137 L426.348321,375.565343 L428.865136,376.073206 L429.997699,377.977698 L430.24938,379.755224 L433.772917,380.009155 L435.157169,381.405777 L434.527967,382.675441 L433.521237,383.310269 L434.779648,384.579925 L441.323361,387.373176 L444.091856,386.357451 L444.846906,384.452959 L446.860352,383.945097 L448.244603,382.802406 L449.251326,383.5642 L449.880528,385.849589 L448.118763,386.484417 L448.622124,386.992279 L451.264779,385.976554 L453.026552,383.310269 L453.655754,382.929372 L452.019821,382.675441 L452.649023,381.405777 L452.523183,380.263087 L454.159115,379.88219 L455.039997,378.866457 L455.543359,379.501285 C455.543359,379.501285 455.417518,381.913639 456.046728,381.913639 C456.67593,381.913639 459.318584,382.42151 459.318584,382.42151 L462.464601,383.945097 L463.219643,385.087795 L465.484777,385.087795 L466.365667,385.849589 L468.127432,383.437234 L468.127432,382.294536 L467.120709,382.294536 L464.478054,380.136121 L459.947786,379.501285 L457.430972,377.723767 L458.311862,375.565343 L460.073627,375.819275 L460.199467,375.311412 L458.815223,374.549619 L458.815223,374.168714 L461.332038,374.168714 L462.716281,371.756368 L461.709559,370.232772 L461.457878,368.074349 L460.325307,368.201315 L458.815223,369.851876 L458.311862,371.883333 L455.920887,371.375463 L455.165838,369.978841 L456.550089,368.455246 L458.123093,367.058632 L458.712019,366.653938 L459.570265,366.042892 L461.583718,362.741778 L462.967962,363.376606 L468.253272,361.853019 L469.889204,362.10695 L471.021767,362.741778 L475.048674,362.741778 L475.246597,361.755215 L476.055397,361.599088 L478.19469,361.599088 L478.698052,361.726053 L479.704774,359.56763 L480.837345,356.139551 L482.599118,356.647414 L484.990084,361.345157 L484.990084,362.10695 L482.850798,363.630545 L484.990084,363.884477 L489.304168,361.863755 L489.832197,361.953533 L492.540528,361.472122 L497.196636,359.821562 L501.852745,359.440665 L505.250442,358.932802 L511.164953,360.329424 L517.456994,363.376606 L518.715397,364.519305 L520.980531,365.408064 L522.238934,366.931659 L522.490615,369.090082 L525.00743,368.074349 L528.027606,368.074349 L530.796109,366.550762 L533.690445,363.757511 L536.081411,363.884477 L536.45894,362.995709 L535.82973,362.233916 L535.955571,360.710329 L539.101595,360.075493 L541.11504,360.075493 L543.380174,361.218191 L546.652031,362.360881 L548.539644,365.281098 L550.678937,366.042892 L551.55982,368.709177 L554.202475,369.978841 L555.460886,372.010299 L556.97097,372.518161 L560.997877,373.533886 L562.004599,375.94624 L564.395574,378.866457 L564.395574,386.357451 L563.26301,390.039462 L563.514691,392.197885 L564.521414,396.006868 L565.905665,399.181016 L566.534867,398.80012 L567.66743,395.245067 L565.653985,394.483273 L565.402296,393.975411 L566.660707,393.467549 L570.184245,394.229342 L570.310085,395.498998 L567.793271,399.815844 L566.157346,401.720336 L568.925841,404.640553 L570.939287,407.052907 L573.204421,411.24278 L575.469555,414.289962 L577.105487,418.225912 L578.489731,418.479843 L579.748142,416.829282 L581.132386,417.718049 L583.145839,420.892197 L583.6492,423.685448 L586.040175,427.113528 L586.669376,426.097803 L589.689552,426.351734 L592.458048,428.129252 L595.100703,432.192167 L595.729912,434.858453 L595.981593,437.143842 L596.862475,437.905635 L597.869206,438.286532 L599.756811,437.524739 L600.889382,436.255075 L603.909558,436.128109 L606.300532,434.985419 L608.439818,432.446099 L608.062297,430.922504 L607.810616,429.01802 L608.313977,427.494424 L608.062297,425.970837 L609.94991,424.955105 L610.20159,422.288819 L609.698229,420.892197 L609.320708,411.496711 L608.313977,405.529312 L604.79044,399.054051 L602.021945,394.483273 L600.008492,390.293393 L597.743358,388.008012 L595.478231,382.167571 L596.107433,381.151846 L596.988316,380.136121 L595.729912,377.850732 L592.583896,374.930515 L588.80867,370.613669 L585.914334,365.661995 L581.761595,358.297974 L578.8583,350.646534 L577.094651,344.898603 L577.079892,344.200064 L576.476285,339.253079 L578.23805,331.381188 L579.370621,328.080066 L578.993092,326.048617 L581.588683,321.144427 L581.191453,320.082836 L581.635747,319.319416 L583.271679,318.303691 L587.172745,313.986845 L586.417696,311.447525 L588.68283,311.32056 L591.451325,308.654274 L592.709736,308.019446 L594.471501,305.353161 L596.610794,303.194738 L598.246727,300.401486 L600.134332,299.893624 L601.015222,297.735201 L602.273625,297.100373 L602.651146,292.148699 L604.6646,287.32399 L608.884579,283.037083 L609.102749,282.406386 L613.347607,281.356591 L616.996992,280.975694 L617.374513,279.071202 L618.884597,273.992562 L621.527252,270.310552 L626.560881,266.120679 L630.587788,264.216187 L632.727074,263.708325 L633.607964,264.089222 L634.614687,264.089222 L637.005661,260.280238 L638.515753,257.486987 L637.509022,257.867892 L635.747258,259.64541 L635.243888,258.375754 L631.972032,258.375754 L633.482124,253.42408 L632.852922,252.408355 L631.34283,252.408355 L631.34283,251.646553 L631.091149,250.630829 L632.349553,251.646553 L633.482124,251.773519 L635.369729,252.02745 L638.264072,250.757794 L639.270795,248.472405 L639.774156,246.821845 L641.78761,245.80612 L642.03929,242.505006 L641.410089,241.997144 L643.297694,241.870178 L642.794332,240.092652 L640.906727,238.18816 L638.138232,233.10952 L636.807123,229.419303 L636.090676,228.693032 L633.282411,223.971343 L628.766746,225.295371 L627.542889,224.121768 L629.530242,223.036905 L629.14742,221.054487 L627.767185,219.652274 L627.672575,218.543386 L625.896993,217.331637 L625.827744,216.062829 L627.924816,216.137394 L628.097471,215.049947 L627.140466,214.429673 L627.513293,212.91357 L626.443168,212.047642 L626.785278,208.364116 L626.10955,207.421636 L623.626029,207.105495 L621.950615,205.465246 L618.170212,204.725325 L615.874891,203.965103 Z M587,447.380279 L589.000004,446.929578 L590.066663,446.760565 L591.266672,445.12676 L593.200001,444 L594.26667,444.338033 L595.666669,444.563383 L596,445.295773 L593.133343,446.140844 L589.666666,447.154928 L587.733337,448 L587,447.380279 Z M598,443.136529 L599.019419,444 L601.3301,442.273066 L605.815533,438.819188 L608.941743,435.630992 L611.048542,430.1845 L611.864079,428.789667 L612,426 L611.388345,426.398521 L610.572817,428.723246 L609.349507,432.509216 L606.631061,436.826573 L602.961166,440.280442 L600.106799,441.874536 L598,443.136529 Z M641,252.87773 L643.113212,250.982531 L645.688676,249.026196 L646.943394,248.537117 L647.075469,247.008735 L646.54717,242.362446 L645.35849,240.589524 L644.830183,239.183412 L645.424527,239 L647.669813,243.157209 L648,246.519647 L647.867925,249.087339 L645.09434,250.248903 L642.783017,252.082968 L641.858494,253 L641,252.87773 Z M689.355551,130.230769 L691.04444,129.30768 L691.400006,127 L692.200003,127.153844 L693,130.230769 L692.022228,130.846143 L689,131 L689.355551,130.230769 Z M684,132.967754 L685.599992,130 L686.719997,130 L688,131.677423 L686.320003,132.838711 L684.800003,134 L684,132.967754 Z M692,77.4074069 L693.767443,76 L695.348841,76.9629655 L696,79.1851908 L694.046511,80 L692,77.4074069 Z M696,76.462112 L697.692305,77.9926085 C697.692305,77.9926085 698.923075,78.0591432 698.923075,77.7929713 C698.923075,77.5267995 699.153843,76.1293889 699.153843,76.1293889 L700,75.4639593 L699.230765,74 L697.307692,74.5988925 L696,76.462112 Z M626,202.292687 L627.365845,203.804883 L627.560966,204.878051 L628.926824,206 C628.926824,206 630,205.463413 630,205.268292 C630,205.073172 629.121957,203.414636 629.121957,203.414636 L628.243901,202 L626,202.292687 Z M443,58.4594586 L444.358494,57.4864879 L445.971701,57.1081097 L449.962263,55.2702707 L451.660367,55 L452,55.2162198 L448.179247,57.6486511 L445.71698,58.5675661 L444.188677,59 L443,58.4594586 Z M508.631581,84.724144 L509.052631,86.8620698 L511.157894,87 L512,85.9655153 C512,85.9655153 511.947369,84.724144 511.736844,84.5862053 C511.526312,84.4482751 510.684213,83 510.684213,83 L509.263163,83.2068952 L508.210525,83.3448254 L508,84.310345 L508.631581,84.724144 Z M56,4.2496554 L57.123597,4.14979472 L57.3932596,4.99861605 L58.2471924,4 L59.5505626,4 L60,4.94868201 L59.1460666,5.99722531 L59.5056218,6.49653674 L59.1011258,7.74480202 L58.3370801,7.99445125 C58.3370801,7.99445125 57.8426964,8.04438529 57.8426964,7.84466332 C57.8426964,7.64494134 58.651689,6.24688134 58.651689,6.24688134 L57.7078685,5.89736464 L57.5280936,6.79611939 L57.123597,7.19556334 L56.2696625,5.79750334 L56,4.2496554 Z M346.880003,438 L346.460006,432.362994 L344.420005,426.661923 L344,421.088973 L345.14,414.555167 L347.600006,409.11033 L350.179996,404.818511 L352.520003,402 L353,402.192178 L349.460001,407.444845 L346.220008,412.633463 L344.720003,417.886123 L344.480004,421.985772 L345.14,426.8541 L347.060002,432.555171 L347.42,436.654805 L347.539999,437.807838 L346.880003,438 Z M26.8771931,260 L28,260.542857 L27.85965,261 L25.0526319,260.971429 L24.5614034,260.542857 L24,260.028571 L26.8771931,260 Z M29,259.653056 L29.6185568,259 L31.4329897,261.122443 L33,262.346924 L32.5463916,263 L30.2371135,262.755094 L29.4123715,261.122443 L29,259.653056 Z M46,273.046155 L47.5172379,274.830768 L48.2069006,275.569233 L49.5172464,276 L50,274.892306 L49.1724155,273.53846 L46.896554,272 L46,272.123076 L46,273.046155 Z M42.5581367,281 L44.604652,283.363638 L46,284.81819 L44.3255773,285 L42.8372113,284.090914 C42.8372113,284.090914 42,283.000004 42,282.696968 C42,282.393947 42,281.060606 42,281.060606 L42.5581367,281 Z" id="US-Mainland"></path>
                </g>
                <g id="hp-x-line" transform="translate(84.000000, 414.000000)" opacity="0.355189732" stroke="#005EFF" stroke-linecap="square" stroke-width="0.4">
                        <path d="M0.39453125,1.07106781 L487.117188,1.07106781" id="Line"></path>
                    </g>
                <g id="Grades" transform="translate(44.000000, 46.000000)" opacity="0.357538132">
                        <path d="M40.5,368.5 L40.5,0.599348534" id="axis-line-2" stroke="#005EFF" stroke-width="0.4" stroke-linecap="square"></path>
                        <path d="M27.9666667,0.5 L54.100651,0.5" id="axis-line-1" stroke="#005EFF" stroke-width="0.4" stroke-linecap="square"></path>
                        <text id="A" font-family="Helvetica" font-size="14" font-weight="normal" line-spacing="22.8096" letter-spacing="0.06999999" fill="#005EFF">
                            <tspan x="9.79605469" y="48">A</tspan>
                        </text>
                        <text id="+" font-family="Helvetica" font-size="19.502208" font-weight="normal" line-spacing="22.8096" letter-spacing="0.0975110382" fill="#005EFF">
                            <tspan x="14" y="27">+</tspan>
                        </text>
                        <text id="+-copy-2" font-family="Helvetica" font-size="19.502208" font-weight="normal" line-spacing="22.8096" letter-spacing="0.0975110382" fill="#005EFF">
                            <tspan x="14" y="174">+</tspan>
                        </text>
                        <text id="+-copy-4" font-family="Helvetica" font-size="19.502208" font-weight="normal" line-spacing="22.8096" letter-spacing="0.0975110382" fill="#005EFF">
                            <tspan x="14" y="321">+</tspan>
                        </text>
                        <text id="+-copy" font-family="Helvetica" font-size="19.502208" font-weight="normal" line-spacing="22.8096" letter-spacing="0.0975110382" fill="#005EFF">
                            <tspan x="14" y="100">+</tspan>
                        </text>
                        <text id="+-copy-3" font-family="Helvetica" font-size="19.502208" font-weight="normal" line-spacing="22.8096" letter-spacing="0.0975110382" fill="#005EFF">
                            <tspan x="14" y="250">+</tspan>
                        </text>
                        <text id="-" font-family="Helvetica" font-size="19.502208" font-weight="normal" line-spacing="22.8096" letter-spacing="0.0975110382" fill="#005EFF">
                            <tspan x="14" y="67">-</tspan>
                        </text>
                        <text id="--copy-2" font-family="Helvetica" font-size="19.502208" font-weight="normal" line-spacing="22.8096" letter-spacing="0.0975110382" fill="#005EFF">
                            <tspan x="14" y="214">-</tspan>
                        </text>
                        <text id="--copy-4" font-family="Helvetica" font-size="19.502208" font-weight="normal" line-spacing="22.8096" letter-spacing="0.0975110382" fill="#005EFF">
                            <tspan x="14" y="361">-</tspan>
                        </text>
                        <text id="--copy" font-family="Helvetica" font-size="19.502208" font-weight="normal" line-spacing="22.8096" letter-spacing="0.0975110382" fill="#005EFF">
                            <tspan x="14" y="139">-</tspan>
                        </text>
                        <text id="--copy-3" font-family="Helvetica" font-size="19.502208" font-weight="normal" line-spacing="22.8096" letter-spacing="0.0975110382" fill="#005EFF">
                            <tspan x="14" y="289">-</tspan>
                        </text>
                        <text id="D" font-family="Helvetica" font-size="14" font-weight="normal" line-spacing="22.8096" letter-spacing="0.06999999" fill="#005EFF">
                            <tspan x="9.40982422" y="270">D</tspan>
                        </text>
                        <text id="B" font-family="Helvetica" font-size="14" font-weight="normal" line-spacing="22.8096" letter-spacing="0.06999999" fill="#005EFF">
                            <tspan x="9.79605469" y="120">B</tspan>
                        </text>
                        <text id="F" font-family="Helvetica" font-size="14" font-weight="normal" line-spacing="22.8096" letter-spacing="0.06999999" fill="#005EFF">
                            <tspan x="10.1891211" y="342">F</tspan>
                        </text>
                        <text id="C" font-family="Helvetica" font-size="14" font-weight="normal" line-spacing="22.8096" letter-spacing="0.06999999" fill="#005EFF">
                            <tspan x="9.40982422" y="194">C</tspan>
                        </text>
                    </g>
                <g id="circles" transform="translate(90.184495, 34.071068)" fill="#1A62DB">
                    <path opacity="0" class="plotpoints" d="M7,371.113427 C9.76142375,371.113427 12,368.874851 12,366.113427 C12,363.352004 9.76142375,361.113427 7,361.113427 C4.23857625,361.113427 2,363.352004 2,366.113427 C2,368.874851 4.23857625,371.113427 7,371.113427 Z" id="circle-1"  transform="translate(7.000000, 366.113427) rotate(164.000000) translate(-7.000000, -366.113427) "></path>
                    <path opacity="0" class="plotpoints" d="M57,357.113427 C59.7614237,357.113427 62,354.874851 62,352.113427 C62,349.352004 59.7614237,347.113427 57,347.113427 C54.2385763,347.113427 52,349.352004 52,352.113427 C52,354.874851 54.2385763,357.113427 57,357.113427 Z" id="circle-3"  transform="translate(57.000000, 352.113427) rotate(164.000000) translate(-57.000000, -352.113427) "></path>
                    <path opacity="0" class="plotpoints" d="M46.3155047,337.928932 C48.8007861,337.928932 50.8155047,335.914214 50.8155047,333.428932 C50.8155047,330.943651 48.8007861,328.928932 46.3155047,328.928932 C43.8302234,328.928932 41.8155047,330.943651 41.8155047,333.428932 C41.8155047,335.914214 43.8302234,337.928932 46.3155047,337.928932 Z" id="circle-2"></path>
                    <path opacity="0" class="plotpoints" d="M84.3155047,318.928932 C86.8007861,318.928932 88.8155047,316.914214 88.8155047,314.428932 C88.8155047,311.943651 86.8007861,309.928932 84.3155047,309.928932 C81.8302234,309.928932 79.8155047,311.943651 79.8155047,314.428932 C79.8155047,316.914214 81.8302234,318.928932 84.3155047,318.928932 Z" id="circle-4" ></path>
                    <path opacity="0" class="plotpoints" d="M121.315505,330.928932 C125.45764,330.928932 128.815505,327.571068 128.815505,323.428932 C128.815505,319.286797 125.45764,315.928932 121.315505,315.928932 C117.173369,315.928932 113.815505,319.286797 113.815505,323.428932 C113.815505,327.571068 117.173369,330.928932 121.315505,330.928932 Z" id="circle-5" ></path>
                    <path opacity="0" class="plotpoints" d="M133,357.113427 C135.761424,357.113427 138,354.874851 138,352.113427 C138,349.352004 135.761424,347.113427 133,347.113427 C130.238576,347.113427 128,349.352004 128,352.113427 C128,354.874851 130.238576,357.113427 133,357.113427 Z" id="circle-6"  transform="translate(133.000000, 352.113427) rotate(164.000000) translate(-133.000000, -352.113427) "></path>
                    <path opacity="0" class="plotpoints" d="M106.315505,278.928932 C108.800786,278.928932 110.815505,276.914214 110.815505,274.428932 C110.815505,271.943651 108.800786,269.928932 106.315505,269.928932 C103.830223,269.928932 101.815505,271.943651 101.815505,274.428932 C101.815505,276.914214 103.830223,278.928932 106.315505,278.928932 Z" id="circle-7" ></path>
                    <path opacity="0" class="plotpoints" d="M127,310.113427 C129.761424,310.113427 132,307.874851 132,305.113427 C132,302.352004 129.761424,300.113427 127,300.113427 C124.238576,300.113427 122,302.352004 122,305.113427 C122,307.874851 124.238576,310.113427 127,310.113427 Z" id="circle-8"  transform="translate(127.000000, 305.113427) rotate(164.000000) translate(-127.000000, -305.113427) "></path>
                    <path opacity="0" class="plotpoints" d="M152.315505,334.928932 C154.800786,334.928932 156.815505,332.914214 156.815505,330.428932 C156.815505,327.943651 154.800786,325.928932 152.315505,325.928932 C149.830223,325.928932 147.815505,327.943651 147.815505,330.428932 C147.815505,332.914214 149.830223,334.928932 152.315505,334.928932 Z" id="circle-9" ></path>
                    <circle opacity="0" class="plotpoints" id="circle-10"  cx="161.315505" cy="282.428932" r="15.5"></circle>
                    <path opacity="0" class="plotpoints" d="M174.092248,331.705675 C178.234383,331.705675 181.592248,328.347811 181.592248,324.205675 C181.592248,320.063539 178.234383,316.705675 174.092248,316.705675 C169.950112,316.705675 166.592248,320.063539 166.592248,324.205675 C166.592248,328.347811 169.950112,331.705675 174.092248,331.705675 Z" id="circle-11"  transform="translate(174.092248, 324.205675) rotate(164.000000) translate(-174.092248, -324.205675) "></path>
                    <circle opacity="0" class="plotpoints" id="circle-12"  cx="156.815505" cy="214.928932" r="8"></circle>
                    <circle opacity="0" class="plotpoints" id="circle-13"  cx="189.315505" cy="239.428932" r="5.5"></circle>
                    <circle opacity="0" class="plotpoints" id="circle-14"  cx="238.315505" cy="299.428932" r="10.5"></circle>
                    <circle opacity="0" class="plotpoints" id="circle-15"  cx="175.815505" cy="165.928932" r="8"></circle>
                    <circle opacity="0" class="plotpoints" id="circle-16"  cx="203.815505" cy="222.928932" r="20"></circle>
                    <circle opacity="0" class="plotpoints" id="circle-17"  cx="238.315505" cy="249.428932" r="11.5"></circle>
                    <circle opacity="0" class="plotpoints" id="circle-18"  cx="181.315505" cy="155.428932" r="7.5"></circle>
                    <circle opacity="0" class="plotpoints" id="circle-19"  cx="223.315505" cy="214.428932" r="10.5"></circle>
                    <circle opacity="0" class="plotpoints" id="circle-20"  cx="242.315505" cy="168.428932" r="8.5"></circle>
                    <path opacity="0" class="plotpoints" d="M273.886573,209 C276.647996,209 278.886573,206.761424 278.886573,204 C278.886573,201.238576 276.647996,199 273.886573,199 C271.125149,199 268.886573,201.238576 268.886573,204 C268.886573,206.761424 271.125149,209 273.886573,209 Z" id="circle-21"  transform="translate(273.886573, 204.000000) rotate(-45.000000) translate(-273.886573, -204.000000) "></path>
                    <circle opacity="0" class="plotpoints" id="circle-22"  cx="295.315505" cy="217.428932" r="10.5"></circle>
                    <circle opacity="0" class="plotpoints" id="circle-23" cx="288.315505" cy="176.428932" r="10.5"></circle>
                    <circle opacity="0" class="plotpoints" id="circle-24"  cx="344.315505" cy="212.428932" r="5.5"></circle>
                    <circle opacity="0" class="plotpoints" id="circle-25"  cx="302.815505" cy="153.928932" r="8"></circle>
                    <circle opacity="0" class="plotpoints" id="circle-26"  cx="336.815505" cy="156.928932" r="6"></circle>
                    <circle opacity="0" class="plotpoints" id="circle-27"  cx="358.315505" cy="173.428932" r="8.5"></circle>
                    <circle opacity="0" class="plotpoints" id="circle-28"  cx="316.315505" cy="118.428932" r="5.5"></circle>
                    <circle opacity="0" class="plotpoints" id="circle-29"  cx="310.815505" cy="95.9289322" r="8"></circle>
                    <circle opacity="0" class="plotpoints" id="circle-30"  cx="350.815505" cy="115.928932" r="8"></circle>
                    <path class="plotpoints" d="M374.060695,155.674123 C378.202831,155.674123 381.560695,152.316258 381.560695,148.174123 C381.560695,144.031987 378.202831,140.674123 374.060695,140.674123 C369.91856,140.674123 366.560695,144.031987 366.560695,148.174123 C366.560695,152.316258 369.91856,155.674123 374.060695,155.674123 Z" id="circle-31" opacity="0" transform="translate(374.060695, 148.174123) rotate(-210.000000) translate(-374.060695, -148.174123) "></path>
                    <circle class="plotpoints" id="circle-32" opacity="0" cx="313.315505" cy="65.4289322" r="5.5"></circle>
                    <path class="plotpoints" d="M365.604137,105.004524 C368.365561,105.004524 370.604137,102.765948 370.604137,100.004524 C370.604137,97.2431006 368.365561,95.0045244 365.604137,95.0045244 C362.842713,95.0045244 360.604137,97.2431006 360.604137,100.004524 C360.604137,102.765948 362.842713,105.004524 365.604137,105.004524 Z" id="circle-33" opacity="0" transform="translate(365.604137, 100.004524) rotate(-45.000000) translate(-365.604137, -100.004524) "></path>
                    <circle class="plotpoints" id="circle-34" opacity="0" cx="374.315505" cy="75.4289322" r="7.5"></circle>
                    <circle class="plotpoints" id="circle-35" opacity="0" cx="398.315505" cy="108.428932" r="10.5"></circle>
                    <path class="plotpoints" d="M403.060695,103.674123 C407.202831,103.674123 410.560695,100.316258 410.560695,96.1741227 C410.560695,92.0319871 407.202831,88.6741227 403.060695,88.6741227 C398.91856,88.6741227 395.560695,92.0319871 395.560695,96.1741227 C395.560695,100.316258 398.91856,103.674123 403.060695,103.674123 Z" id="circle-36" opacity="0" transform="translate(403.060695, 96.174123) rotate(-210.000000) translate(-403.060695, -96.174123) "></path>
                    <circle class="plotpoints" id="circle-37" opacity="0" cx="416.815505" cy="56.9289322" r="8"></circle>
                    <circle class="plotpoints" id="circle-38" opacity="0" cx="450.815505" cy="73.9289322" r="6"></circle>
                    <circle class="plotpoints" id="circle-39" opacity="0" cx="478.815505" cy="100.928932" r="6"></circle>
                    <circle class="plotpoints" id="circle-40" opacity="0" cx="416.815505" cy="28.9289322" r="8"></circle>
                    <circle class="plotpoints"id="circle-41" opacity="0" cx="442.815505" cy="46.9289322" r="6"></circle>
                    <path class="plotpoints" d="M443.886573,46 C446.647996,46 448.886573,43.7614237 448.886573,41 C448.886573,38.2385763 446.647996,36 443.886573,36 C441.125149,36 438.886573,38.2385763 438.886573,41 C438.886573,43.7614237 441.125149,46 443.886573,46 Z" id="circle-42" opacity="0" transform="translate(443.886573, 41.000000) rotate(-45.000000) translate(-443.886573, -41.000000) "></path>
                    <circle class="plotpoints" id="circle-43" opacity="0" cx="450.815505" cy="14.9289322" r="6"></circle>
                    <path class="plotpoints" d="M468.886573,13 C471.647996,13 473.886573,10.7614237 473.886573,8 C473.886573,5.23857625 471.647996,3 468.886573,3 C466.125149,3 463.886573,5.23857625 463.886573,8 C463.886573,10.7614237 466.125149,13 468.886573,13 Z" id="circle-44" opacity="0" transform="translate(468.886573, 8.000000) rotate(-45.000000) translate(-468.886573, -8.000000) "></path>
                </g>
            </g>
        </g>
    </g>
</svg>